<?xml version="1.0" encoding="utf-8"?>
<!-- Generator: Adobe Illustrator 26.0.3, SVG Export Plug-In . SVG Version: 6.00 Build 0)  -->
<svg version="1.1" id="图层_1" xmlns="http://www.w3.org/2000/svg" xmlns:xlink="http://www.w3.org/1999/xlink" x="0px" y="0px"
	 viewBox="0 0 150 58" style="enable-background:new 0 0 150 58;" xml:space="preserve">
<style type="text/css">
	.st0{fill:none;}
	.st1{enable-background:new    ;}
	.st2{fill:#36A238;}
</style>
<g>
	<path d="M92,26.6"/>
	<g>
		<rect x="6.1" y="1.1" class="st0" width="137.8" height="55.9"/>
		<g class="st1">
			<path class="st2" d="M32.9,19.3l-6.9,4c1.9,1.1,3.4,2.5,4.4,4.1c1,1.6,1.6,3.3,1.6,5.1c0,3-1.3,5.6-3.8,7.5
				c-2.5,1.9-5.9,2.8-10.2,2.8c-3.1,0-5.7-0.6-7.6-1.8c-2-1.2-2.9-2.8-2.9-4.7c0-1.4,0.5-2.6,1.5-3.7c1-1,2.5-1.7,4.6-2.2l-6.1-0.9
				l12.3-1.6c-0.9,0.7-1.6,1.4-2,2.1c-0.4,0.7-0.7,1.4-0.7,2.2c0,0.8,0.2,1.5,0.7,1.9c0.5,0.5,1.1,0.7,2,0.7c1.3,0,2.2-0.4,3-1.3
				c0.7-0.9,1.1-2.1,1.1-3.8c0-1.3-0.2-2.5-0.6-3.6c-0.4-1-1-2-1.9-2.8l-7.8-1.5L32.9,19.3z"/>
			<path class="st2" d="M59.9,31.6c0,1.1-0.1,2.1-0.4,3c-0.3,0.9-0.7,1.8-1.3,2.6c-1.2,1.7-2.8,3-4.9,4.1c-2.1,1-4.3,1.5-6.6,1.5
				c-1.2,0-2.4-0.2-3.5-0.5s-2.1-0.8-3-1.4c-1.6-1.1-2.9-2.4-3.8-4.1c-0.9-1.6-1.3-3.5-1.3-5.3c0-1.4,0.3-2.8,0.8-4.2
				c0.6-1.3,1.4-2.4,2.4-3.6c1.3-1.3,2.8-2.3,4.6-3c1.7-0.7,3.6-1,5.5-1c1.2,0,2.3,0.1,3.4,0.4c1,0.3,2,0.7,2.9,1.3
				c1.6,1,2.8,2.4,3.7,4.3C59.3,27.7,59.9,29.7,59.9,31.6z M48.2,23.7c-0.3,0.4-0.5,0.9-0.7,1.4c-0.2,0.5-0.2,1-0.2,1.5
				c0,0.9,0.3,1.7,1,2.3c0.7,0.7,1.5,1,2.5,1c0.8,0,1.5-0.2,2.1-0.6c0.7-0.4,1.2-0.9,1.5-1.5c-0.7-1.2-1.6-2.2-2.7-2.9
				C50.7,24.1,49.5,23.7,48.2,23.7z"/>
			<path class="st2" d="M90.6,42.7l-12.3-1.5l2.4-1.6l-7.1-7.2l-0.8,0.1l1.7,8.1l2.6,2.7l-15.5-1.7l2.8-2L65.9,23l-3-1.9l12.4-1.5
				l-3.4,2.6l1,6.4l5.4-6.4l-1.5-1.8l11.3,0.4l-8,6.6L90.6,42.7z"/>
			<path class="st2" d="M115,33.1l-1.4,10.1L88.3,42l6.6-2.3L92.5,23l-4.3-1.6l24.1-1.6l1.5,7l-2.5-2.5h-7.4l-1.1,4.7l5.3-1.2
				l1.6-2.4l0.6,10.6l-1.7-2.6l-4.7-0.6l-1.8,5l8.8,1.1L115,33.1z"/>
			<path class="st2" d="M142.7,41.1l-10.3,3.5l1.2-2.3l-5.8-7c-0.2,0-0.5-0.1-0.7-0.1c-0.2,0-0.5-0.1-0.8-0.1l0.4,5.4l3.4,3
				L117.2,42l2.2-1.5l2.2-16.7l-4.8-2.1l11.8-1.3c0.9-0.1,1.7-0.2,2.3-0.2s1.2-0.1,1.7-0.1c3.1,0,5.4,0.6,7,1.9
				c1.6,1.2,2.4,3.1,2.4,5.6c0,2-0.7,3.7-2,5c-1.4,1.3-3.4,2.1-6.1,2.6L142.7,41.1z M126.5,30.5c0.3,0.2,0.7,0.3,1.1,0.4
				c0.4,0.1,0.7,0.2,1,0.2c0.4,0,0.8-0.2,1.1-0.7c0.3-0.5,0.5-1,0.5-1.6c0-0.7-0.2-1.4-0.7-1.9c-0.5-0.6-1.3-1.1-2.4-1.5L126.5,30.5
				z"/>
		</g>
	</g>
</g>
</svg>
