<?xml version="1.0" encoding="utf-8"?>
<!-- Generator: Adobe Illustrator 26.0.3, SVG Export Plug-In . SVG Version: 6.00 Build 0)  -->
<svg version="1.1" id="Layer_13" xmlns="http://www.w3.org/2000/svg" xmlns:xlink="http://www.w3.org/1999/xlink" x="0px" y="0px"
	 viewBox="0 0 1758.269 717.5" style="enable-background:new 0 0 1758.269 717.5;" xml:space="preserve">
<style type="text/css">
	.st0{fill:none;}
	.st1{enable-background:new    ;}
	.st2{fill:#36A238;}
</style>
<g>
	<path d="M1091.6,327.6"/>
	<g>
		<rect class="st0" width="1750.6" height="717.5"/>
		<g class="st1">
			<path class="st2" d="M339.91,235.121l-88.281,50.781c24.609,14.716,43.555,32.227,56.836,52.539s19.922,41.864,19.922,64.648
				c0,39.584-16.309,71.68-48.926,96.289s-75.488,36.914-128.613,36.914c-39.844,0-72.235-7.94-97.168-23.828
				c-24.936-15.885-37.402-35.938-37.402-60.156c0-18.878,6.412-34.57,19.238-47.07c12.823-12.5,32.452-22.198,58.887-29.102
				l-77.539-11.523l155.469-20.703c-11.459,9.247-20.053,18.555-25.781,27.93c-5.731,9.375-8.594,18.817-8.594,28.32
				c0,10.547,3.125,19.013,9.375,25.391c6.25,6.381,14.581,9.57,25,9.57c16.016,0,28.677-5.859,37.988-17.578
				c9.308-11.719,13.965-27.734,13.965-48.047c0-16.925-2.573-32.062-7.715-45.41c-5.146-13.346-13.184-25.684-24.121-37.012
				l-99.609-20.117L339.91,235.121z"/>
			<path class="st2" d="M683.152,392.543c0,14.062-1.758,27.182-5.273,39.355c-3.516,12.177-8.856,23.471-16.016,33.887
				c-15.106,22.138-35.874,39.746-62.305,52.832c-26.435,13.086-54.428,19.629-83.984,19.629c-15.756,0-30.566-2.021-44.434-6.055
				s-26.66-10.025-38.379-17.969c-20.834-14.062-36.981-31.607-48.438-52.637c-11.459-21.026-17.188-43.717-17.188-68.066
				c0-18.619,3.58-36.328,10.742-53.125c7.159-16.797,17.578-31.9,31.25-45.312c16.797-16.666,36.358-29.522,58.691-38.574
				c22.33-9.049,45.733-13.574,70.215-13.574c15.362,0,29.718,1.923,43.066,5.762c13.345,3.842,25.616,9.54,36.816,17.09
				c20.05,13.544,35.938,31.738,47.656,54.59S683.152,367.283,683.152,392.543z M534.714,290.59
				c-3.778,5.6-6.641,11.523-8.594,17.773s-2.93,12.631-2.93,19.141c0,11.719,4.458,21.845,13.379,30.371
				c8.917,8.529,19.498,12.793,31.738,12.793c9.634,0,18.78-2.604,27.441-7.812c8.658-5.206,14.874-11.847,18.652-19.922
				c-9.375-16.144-20.868-28.711-34.473-37.695C566.321,296.254,551.249,291.371,534.714,290.59z"/>
			<path class="st2" d="M1073.464,535.121l-155.469-18.945l31.055-20.312l-90.625-93.164l-10.156,1.953l21.289,103.906
				l32.812,34.961l-196.484-22.07l35.156-25.977l18.555-212.5l-38.086-24.414l157.227-19.141l-43.945,33.984l13.086,82.812
				l68.945-82.031l-19.336-23.633l143.164,5.273l-101.562,81.641L1073.464,535.121z"/>
			<path class="st2" d="M1383.503,410.316l-17.578,129.102l-321.68-14.062l84.57-29.492l-30.078-214.453l-54.492-21.094
				l306.055-20.898l19.141,89.648l-31.836-32.812l-94.141,0.391l-14.258,59.57l67.188-15.625l19.922-30.664l7.617,135.156
				l-21.289-33.594l-59.57-8.008l-23.633,63.477l112.109,14.062L1383.503,410.316z"/>
			<path class="st2" d="M1735.534,514.223l-130.859,43.945l15.625-29.492l-74.023-90.039c-2.997-0.26-6.088-0.684-9.277-1.27
				c-3.192-0.586-6.479-1.202-9.863-1.855l5.664,69.531l43.945,38.867l-165.234-18.555l27.539-19.531l28.516-213.672l-61.719-26.758
				l150-17.188c11.456-1.432,21.289-2.441,29.492-3.027s15.494-0.879,21.875-0.879c39.581,0,69.596,8.105,90.039,24.316
				c20.44,16.211,30.664,40.072,30.664,71.582c0,26.172-8.725,47.494-26.172,63.965c-17.45,16.474-43.359,27.832-77.734,34.082
				L1735.534,514.223z M1529.479,378.285c4.297,2.344,8.789,4.199,13.477,5.566s8.984,2.051,12.891,2.051
				c5.469,0,10.318-3.058,14.551-9.18c4.229-6.119,6.348-13.086,6.348-20.898c0-9.635-3.192-18.097-9.57-25.391
				c-6.381-7.291-16.406-13.867-30.078-19.727L1529.479,378.285z"/>
		</g>
	</g>
</g>
</svg>
