<?xml version="1.0" encoding="utf-8"?>
<!-- Generator: Adobe Illustrator 26.0.3, SVG Export Plug-In . SVG Version: 6.00 Build 0)  -->
<svg version="1.1" id="Layer_13" xmlns="http://www.w3.org/2000/svg" xmlns:xlink="http://www.w3.org/1999/xlink" x="0px" y="0px"
	 viewBox="0 0 1750.64 717.46" style="enable-background:new 0 0 1750.64 717.46;" xml:space="preserve">
<style type="text/css">
	.st0{fill:#70BD65;}
</style>
<g>
	<path class="st0" d="M471.72,345.05c-16.53,42.75-32.07,77.11-46.62,103.08c-14.56,25.78-28.73,44.3-42.54,55.55
		c-11.36,9.09-22.02,13.64-31.97,13.64c-8.26,0-14.7-3.75-19.3-11.25c-3.57-5.81-5.35-12.23-5.35-19.27
		c0-15.75,4.55-32.2,13.66-49.36c5.73-10.69,13.1-20.2,22.11-28.55c4.32-4.03,7.47-6.05,9.44-6.05c1.31,0,2.54,0.7,3.66,2.11
		c0.75,0.94,1.13,2.02,1.13,3.23c0,1.41-2.54,5.39-7.61,11.95c-17.28,22.59-25.92,43.08-25.92,61.45c0,5.62,1.22,10.55,3.66,14.77
		c2.72,4.59,6.57,6.89,11.55,6.89c9.86,0,20.61-8.58,32.26-25.73c14.84-21.75,30.47-50.67,46.91-86.77
		c7.79-17.25,13.8-31.73,18.03-43.45c-18.03,3.47-30.57,6.61-37.61,9.42c-3.1,1.22-5.59,1.83-7.47,1.83c-1.97,0-3.71-0.94-5.21-2.81
		c-0.94-1.22-1.41-2.67-1.41-4.36c0-3.94,2.68-6.89,8.03-8.86c22.72-8.44,47.23-12.66,73.53-12.66c7.51,0,12.72,0.66,15.63,1.97
		c2.82,1.31,4.23,3.33,4.23,6.05c0,4.97-3.29,7.45-9.86,7.45c-1.88,0-4.42-0.09-7.61-0.28c-3.19-0.09-5.87-0.14-8.03-0.14
		C477.45,344.91,475.01,344.95,471.72,345.05z"/>
	<path class="st0" d="M655.74,421.41c7.7,0,11.55,4.69,11.55,14.06c0,12.47-5.78,28.27-17.33,47.39
		c-12.58,20.72-24.74,31.08-36.48,31.08c-5.44,0-9.44-2.53-11.97-7.59c-1.31-2.53-1.97-5.58-1.97-9.14c0-12,4.13-25.03,12.4-39.09
		c7.7-13.03,16.76-23.15,27.19-30.38C645.22,423.51,650.76,421.41,655.74,421.41z M641.09,474.56c-2.35-1.87-3.52-3.33-3.52-4.36
		c0-0.75,1.5-2.81,4.51-6.19c8.45-9.47,12.68-17.11,12.68-22.92c0-0.75-0.24-1.5-0.7-2.25c-0.75-1.41-1.93-2.11-3.52-2.11
		c-3.01,0-7.42,2.91-13.24,8.72c-7.51,7.5-13.24,15.24-17.18,23.2c-4.6,9.09-6.9,16.64-6.9,22.64c0,1.6,0.42,3,1.27,4.22
		c1.22,1.69,2.77,2.53,4.65,2.53c4.51,0,9.34-3.38,14.51-10.12c2.25-2.81,4.08-5.72,5.49-8.72
		C640.53,476.2,641.18,474.66,641.09,474.56z"/>
	<path class="st0" d="M884.69,451.92c-6.11,15.1-9.16,26.58-9.16,34.45c0,3.85,0.75,7.03,2.25,9.56c1.88,3.19,4.37,4.78,7.46,4.78
		c6.38,0,13.76-4.26,22.12-12.8c5.54-5.44,10.19-10.97,13.94-16.59c2.44-3.75,4.74-5.62,6.9-5.62s3.24,1.08,3.24,3.23
		c0,3.56-4.32,10.88-12.96,21.94c-12.77,16.41-25.17,24.61-37.19,24.61c-7.23,0-12.35-3.52-15.35-10.55
		c-2.25-5.15-3.38-10.59-3.38-16.31c0-4.78,1.13-11.86,3.38-21.23c-6.11,5.06-15.35,17.44-27.75,37.12
		c-3.29,5.34-6.29,8.02-9.01,8.02c-1.41,0-2.63-0.61-3.66-1.83c-1.03-1.31-1.55-2.62-1.55-3.94c0-3.75,4.93-16.26,14.79-37.55
		c17.37-37.22,35.96-68.53,55.78-93.94c10.71-13.87,20.33-24,28.88-30.38c7.7-5.81,13.85-8.72,18.45-8.72
		c2.06,0,3.89,0.84,5.49,2.53c2.06,2.06,3.1,4.59,3.1,7.59c0,7.97-4.18,18.19-12.54,30.66c-8.73,12.85-23.57,28.36-44.51,46.55
		c-11.74,10.12-22.3,18.09-31.69,23.91c-1.22,2.44-4.65,9.56-10.28,21.38c11.74-12.66,21.03-21.38,27.89-26.16
		c4.41-3,10.38-6.14,17.89-9.42c5.07-2.16,8.73-3.23,10.99-3.23c1.22,0,2.3,0.47,3.24,1.41c1.03,0.84,1.55,1.97,1.55,3.38
		c0,3.09-2.11,5.25-6.34,6.47C899.52,443.39,892.2,446.95,884.69,451.92z M872.57,427.73c15.4-10.12,29.77-23.01,43.1-38.67
		c6.67-7.78,12.02-15.28,16.06-22.5c2.82-5.06,4.23-8.67,4.23-10.83c0-2.16-0.99-3.23-2.96-3.23c-5.26,0-14.32,8.06-27.19,24.19
		C895.2,390.09,884.12,407.11,872.57,427.73z"/>
	<path class="st0" d="M1099.13,485.11v2.53c0,2.06,0.51,3.85,1.55,5.34c2.35,3.47,6.2,5.2,11.55,5.2c11.74,0,25.31-9,40.71-27
		c2.72-3.09,5.02-4.64,6.9-4.64c1.03,0,1.97,0.52,2.82,1.55c0.56,0.75,0.84,1.46,0.84,2.11c0,3.66-4.51,9.84-13.52,18.56
		c-7.04,6.84-14.56,12.42-22.54,16.73c-7.98,4.31-15.4,6.47-22.25,6.47c-7.04,0-12.58-2.44-16.62-7.31
		c-2.72-3.38-4.08-7.97-4.08-13.78c0-15.84,7.47-31.36,22.4-46.55c12.11-12.38,22.68-18.56,31.69-18.56c2.44,0,4.65,0.75,6.62,2.25
		c2.44,1.97,3.66,4.55,3.66,7.73c0,4.97-2.3,11.06-6.9,18.28C1132.46,469.03,1118.19,479.39,1099.13,485.11z M1102.23,474.14
		c6.57-2.25,11.74-4.78,15.49-7.59c6.57-5.06,11.78-10.78,15.63-17.16c1.41-2.25,2.11-4.26,2.11-6.05c0-1.87-0.89-2.81-2.68-2.81
		c-2.44,0-5.92,1.83-10.42,5.48C1114.29,452.48,1107.58,461.86,1102.23,474.14z"/>
	<path class="st0" d="M1351.6,465.84c9.2-9.84,19.81-19.45,31.83-28.83c4.32-3.38,8.92-6.51,13.8-9.42
		c2.44-1.41,3.99-2.11,4.65-2.11c1.41,0,2.82,1.03,4.23,3.09c0.85,1.12,1.27,2.16,1.27,3.09c0,1.69-1.78,3.99-5.35,6.89
		c-9.58,7.59-14.37,13.31-14.37,17.16c0,2.16,1.22,3.23,3.66,3.23c4.04,0,10.99-3.33,20.85-9.98c1.69-1.12,3.1-1.69,4.23-1.69
		c0.75,0,1.5,0.38,2.25,1.12c0.85,0.84,1.27,1.74,1.27,2.67c0,2.81-3.94,7.13-11.83,12.94c-8.26,6.19-16.11,9.28-23.52,9.28
		c-3.01,0-5.78-0.79-8.31-2.39c-2.16-1.31-3.24-3.66-3.24-7.03c0-2.34,0.99-5.01,2.96-8.02c-7.42,5.25-16.15,14.25-26.2,27
		c-5.82,7.88-11.6,17.58-17.33,29.11c-2.16,4.31-4.83,6.47-8.03,6.47c-3.47,0-5.21-1.64-5.21-4.92c0-3.19,2.72-11.72,8.17-25.59
		c8.07-20.62,16.53-36.61,25.35-47.95c5.45-7.03,10-10.55,13.66-10.55c1.22,0,2.35,0.38,3.38,1.12c1.22,0.94,1.83,2.11,1.83,3.52
		s-0.94,3.38-2.82,5.91c-0.38,0.47-2.87,3.61-7.46,9.42C1357.09,454.92,1353.85,460.41,1351.6,465.84z"/>
</g>
</svg>
